<?xml version="1.0" encoding="UTF-8" standalone="no"?>
<!DOCTYPE svg PUBLIC "-//W3C//DTD SVG 1.1//EN"
 "http://www.w3.org/Graphics/SVG/1.1/DTD/svg11.dtd">
<!-- Generated by graphviz version 2.47.0 (20210316.0004)
 -->
<!-- Title: dependencies Pages: 1 -->
<svg width="866pt" height="290pt"
 viewBox="0.00 0.00 866.00 290.00" xmlns="http://www.w3.org/2000/svg" xmlns:xlink="http://www.w3.org/1999/xlink">
<g id="graph0" class="graph" transform="scale(1 1) rotate(0) translate(4 286)">
<title>dependencies</title>
<polygon fill="white" stroke="transparent" points="-4,4 -4,-286 862,-286 862,4 -4,4"/>
<text text-anchor="start" x="408.01" y="-42.4" font-family="Times-12" font-weight="bold" font-size="14.00">Legend</text>
<polygon fill="#ffffb3" stroke="transparent" points="195,-10 195,-30 215,-30 215,-10 195,-10"/>
<text text-anchor="start" x="218.63" y="-15.4" font-family="Times-12" font-size="14.00"> &#160;Declarations</text>
<polygon fill="#8dd3c7" stroke="transparent" points="308,-10 308,-30 328,-30 328,-10 308,-10"/>
<text text-anchor="start" x="331.73" y="-15.4" font-family="Times-12" font-size="14.00"> &#160;Module</text>
<polygon fill="#80b1d3" stroke="transparent" points="394,-10 394,-30 414,-30 414,-10 394,-10"/>
<text text-anchor="start" x="417.78" y="-15.4" font-family="Times-12" font-size="14.00"> &#160;Bootstrap</text>
<polygon fill="#fdb462" stroke="transparent" points="491,-10 491,-30 511,-30 511,-10 491,-10"/>
<text text-anchor="start" x="514.67" y="-15.4" font-family="Times-12" font-size="14.00"> &#160;Providers</text>
<polygon fill="#fb8072" stroke="transparent" points="587,-10 587,-30 607,-30 607,-10 587,-10"/>
<text text-anchor="start" x="610.73" y="-15.4" font-family="Times-12" font-size="14.00"> &#160;Exports</text>
<g id="clust7" class="cluster">
<title>cluster_AuthModule</title>
<polygon fill="none" stroke="black" stroke-dasharray="1,5" points="700,-70 700,-274 850,-274 850,-70 700,-70"/>
</g>
<g id="clust10" class="cluster">
<title>cluster_AuthModule_exports</title>
<polygon fill="none" stroke="black" points="715,-214 715,-266 821,-266 821,-214 715,-214"/>
</g>
<g id="clust12" class="cluster">
<title>cluster_AuthModule_providers</title>
<polygon fill="none" stroke="black" points="708,-78 708,-130 842,-130 842,-78 708,-78"/>
</g>
<g id="clust13" class="cluster">
<title>cluster_PostsModule</title>
<polygon fill="none" stroke="black" stroke-dasharray="1,5" points="162,-70 162,-198 424,-198 424,-70 162,-70"/>
</g>
<g id="clust15" class="cluster">
<title>cluster_PostsModule_imports</title>
<polygon fill="none" stroke="black" points="308,-78 308,-130 416,-130 416,-78 308,-78"/>
</g>
<g id="clust18" class="cluster">
<title>cluster_PostsModule_providers</title>
<polygon fill="none" stroke="black" points="170,-78 170,-130 300,-130 300,-78 170,-78"/>
</g>
<g id="clust1" class="cluster">
<title>cluster_AppModule</title>
<polygon fill="none" stroke="black" stroke-dasharray="1,5" points="8,-138 8,-266 154,-266 154,-138 8,-138"/>
</g>
<g id="clust6" class="cluster">
<title>cluster_AppModule_providers</title>
<polygon fill="none" stroke="black" points="16,-146 16,-198 146,-198 146,-146 16,-146"/>
</g>
<g id="clust19" class="cluster">
<title>cluster_UsersModule</title>
<polygon fill="none" stroke="black" stroke-dasharray="1,5" points="432,-138 432,-206 692,-206 692,-138 432,-138"/>
</g>
<g id="clust22" class="cluster">
<title>cluster_UsersModule_exports</title>
<polygon fill="none" stroke="black" points="580,-146 580,-198 684,-198 684,-146 580,-146"/>
</g>
<g id="clust24" class="cluster">
<title>cluster_UsersModule_providers</title>
<polygon fill="none" stroke="black" points="440,-146 440,-198 572,-198 572,-146 440,-146"/>
</g>
<!-- AuthModule -->
<g id="node1" class="node">
<title>AuthModule</title>
<polygon fill="#8dd3c7" stroke="black" points="811.55,-190 808.55,-194 787.55,-194 784.55,-190 724.45,-190 724.45,-154 811.55,-154 811.55,-190"/>
<text text-anchor="middle" x="768" y="-167.8" font-family="Times,serif" font-size="14.00">AuthModule</text>
</g>
<!-- AppModule -->
<g id="node4" class="node">
<title>AppModule</title>
<polygon fill="#8dd3c7" stroke="black" points="145.66,-258 142.66,-262 121.66,-262 118.66,-258 62.34,-258 62.34,-222 145.66,-222 145.66,-258"/>
<text text-anchor="middle" x="104" y="-235.8" font-family="Times,serif" font-size="14.00">AppModule</text>
</g>
<!-- AuthModule&#45;&gt;AppModule -->
<g id="edge1" class="edge">
<title>AuthModule&#45;&gt;AppModule</title>
<path fill="none" stroke="black" d="M724.31,-172C721.33,-172 719.48,-172 719.48,-172 719.48,-172 719.48,-246 719.48,-246 719.48,-246 155.82,-246 155.82,-246"/>
<polygon fill="black" stroke="black" points="155.82,-242.5 145.82,-246 155.82,-249.5 155.82,-242.5"/>
</g>
<!-- AuthService  -->
<g id="node6" class="node">
<title>AuthService </title>
<polygon fill="#fb8072" stroke="black" points="812.98,-258 723.02,-258 723.02,-222 812.98,-222 812.98,-258"/>
<text text-anchor="middle" x="768" y="-235.8" font-family="Times,serif" font-size="14.00">AuthService </text>
</g>
<!-- AuthModule&#45;&gt;AuthService  -->
<g id="edge5" class="edge">
<title>AuthModule&#45;&gt;AuthService </title>
<path fill="none" stroke="black" stroke-dasharray="5,2" d="M768,-190.22C768,-190.22 768,-211.73 768,-211.73"/>
<polygon fill="black" stroke="black" points="764.5,-211.73 768,-221.73 771.5,-211.73 764.5,-211.73"/>
</g>
<!-- PostsModule -->
<g id="node2" class="node">
<title>PostsModule</title>
<polygon fill="#8dd3c7" stroke="black" points="279.61,-190 276.61,-194 255.61,-194 252.61,-190 190.39,-190 190.39,-154 279.61,-154 279.61,-190"/>
<text text-anchor="middle" x="235" y="-167.8" font-family="Times,serif" font-size="14.00">PostsModule</text>
</g>
<!-- PostsModule&#45;&gt;AppModule -->
<g id="edge2" class="edge">
<title>PostsModule&#45;&gt;AppModule</title>
<path fill="none" stroke="black" d="M190.27,-172C166.34,-172 141.72,-172 141.72,-172 141.72,-172 141.72,-211.78 141.72,-211.78"/>
<polygon fill="black" stroke="black" points="138.22,-211.78 141.72,-221.78 145.22,-211.78 138.22,-211.78"/>
</g>
<!-- UsersModule -->
<g id="node3" class="node">
<title>UsersModule</title>
<polygon fill="#8dd3c7" stroke="black" points="407.92,-122 404.92,-126 383.92,-126 380.92,-122 316.08,-122 316.08,-86 407.92,-86 407.92,-122"/>
<text text-anchor="middle" x="362" y="-99.8" font-family="Times,serif" font-size="14.00">UsersModule</text>
</g>
<!-- UsersModule&#45;&gt;PostsModule -->
<g id="edge7" class="edge">
<title>UsersModule&#45;&gt;PostsModule</title>
<path fill="none" stroke="black" d="M339.14,-122.29C339.14,-144.21 339.14,-178 339.14,-178 339.14,-178 289.77,-178 289.77,-178"/>
<polygon fill="black" stroke="black" points="289.77,-174.5 279.77,-178 289.77,-181.5 289.77,-174.5"/>
</g>
<!-- UsersModule&#45;&gt;AppModule -->
<g id="edge3" class="edge">
<title>UsersModule&#45;&gt;AppModule</title>
<path fill="none" stroke="black" d="M362,-122.08C362,-157.8 362,-234 362,-234 362,-234 155.74,-234 155.74,-234"/>
<polygon fill="black" stroke="black" points="155.74,-230.5 145.74,-234 155.74,-237.5 155.74,-230.5"/>
</g>
<!-- UserService  -->
<g id="node9" class="node">
<title>UserService </title>
<polygon fill="#fb8072" stroke="black" points="675.9,-190 588.1,-190 588.1,-154 675.9,-154 675.9,-190"/>
<text text-anchor="middle" x="632" y="-167.8" font-family="Times,serif" font-size="14.00">UserService </text>
</g>
<!-- UsersModule&#45;&gt;UserService  -->
<g id="edge9" class="edge">
<title>UsersModule&#45;&gt;UserService </title>
<path fill="none" stroke="black" stroke-dasharray="5,2" d="M407.8,-104C484.83,-104 632,-104 632,-104 632,-104 632,-143.78 632,-143.78"/>
<polygon fill="black" stroke="black" points="628.5,-143.78 632,-153.78 635.5,-143.78 628.5,-143.78"/>
</g>
<!-- AppService -->
<g id="node5" class="node">
<title>AppService</title>
<ellipse fill="#fdb462" stroke="black" cx="81" cy="-172" rx="56.74" ry="18"/>
<text text-anchor="middle" x="81" y="-167.8" font-family="Times,serif" font-size="14.00">AppService</text>
</g>
<!-- AppService&#45;&gt;AppModule -->
<g id="edge4" class="edge">
<title>AppService&#45;&gt;AppModule</title>
<path fill="none" stroke="black" d="M99.9,-189.16C99.9,-189.16 99.9,-211.65 99.9,-211.65"/>
<polygon fill="black" stroke="black" points="96.4,-211.65 99.9,-221.65 103.4,-211.65 96.4,-211.65"/>
</g>
<!-- AuthService -->
<g id="node7" class="node">
<title>AuthService</title>
<ellipse fill="#fdb462" stroke="black" cx="775" cy="-104" rx="59.11" ry="18"/>
<text text-anchor="middle" x="775" y="-99.8" font-family="Times,serif" font-size="14.00">AuthService</text>
</g>
<!-- AuthService&#45;&gt;AuthModule -->
<g id="edge6" class="edge">
<title>AuthService&#45;&gt;AuthModule</title>
<path fill="none" stroke="black" d="M768,-122.22C768,-122.22 768,-143.73 768,-143.73"/>
<polygon fill="black" stroke="black" points="764.5,-143.73 768,-153.73 771.5,-143.73 764.5,-143.73"/>
</g>
<!-- PostService -->
<g id="node8" class="node">
<title>PostService</title>
<ellipse fill="#fdb462" stroke="black" cx="235" cy="-104" rx="56.76" ry="18"/>
<text text-anchor="middle" x="235" y="-99.8" font-family="Times,serif" font-size="14.00">PostService</text>
</g>
<!-- PostService&#45;&gt;PostsModule -->
<g id="edge8" class="edge">
<title>PostService&#45;&gt;PostsModule</title>
<path fill="none" stroke="black" d="M235,-122.22C235,-122.22 235,-143.73 235,-143.73"/>
<polygon fill="black" stroke="black" points="231.5,-143.73 235,-153.73 238.5,-143.73 231.5,-143.73"/>
</g>
<!-- UserService -->
<g id="node10" class="node">
<title>UserService</title>
<ellipse fill="#fdb462" stroke="black" cx="506" cy="-172" rx="58.44" ry="18"/>
<text text-anchor="middle" x="506" y="-167.8" font-family="Times,serif" font-size="14.00">UserService</text>
</g>
<!-- UserService&#45;&gt;UsersModule -->
<g id="edge10" class="edge">
<title>UserService&#45;&gt;UsersModule</title>
<path fill="none" stroke="black" d="M451.1,-166C419.05,-166 384.86,-166 384.86,-166 384.86,-166 384.86,-132.27 384.86,-132.27"/>
<polygon fill="black" stroke="black" points="388.36,-132.27 384.86,-122.27 381.36,-132.27 388.36,-132.27"/>
</g>
</g>
</svg>
